<?xml version="1.0" encoding="UTF-8"?>
<svg id="a"
     xmlns="http://www.w3.org/2000/svg" viewBox="0 0 807.83599 135">
  <defs>
    <style>.c{fill:#00ce97;}.d{fill:#007dff;}</style>
  </defs>
  <path class="d" d="M148.669552,28.479408h60.47998c.879395,0,1.638672.320312,2.279785.959961.639648.641602.959961,1.400391.959961,2.280273v18.240234c0,.880859-.320312,1.640625-.959961,2.279297-.641113.641602-1.400391.959961-2.279785.959961h-34.319824v8.879883h31.919922c.879395,0,1.638672.321289,2.279785.959961.639648.641602.959961,1.401367.959961,2.280273v18.119629c0,.880859-.320312,1.640625-.959961,2.280273-.641113.640625-1.400391.959961-2.279785.959961h-31.919922v22.55957c0,.881836-.320801,1.640625-.959961,2.280273-.641602.641602-1.400879.959961-2.280273.959961h-22.919922c-.881348,0-1.640625-.318359-2.280273-.959961-.641113-.639648-.959961-1.398438-.959961-2.280273V31.719642c0-.879883.318848-1.638672.959961-2.280273.639648-.639648,1.398926-.959961,2.280273-.959961Z"/>
  <path class="d" d="M255.46838,87.87931h33.240234c.879395,0,1.638672.320312,2.279785.959961.639648.640625.959961,1.400391.959961,2.279297v18.120117c0,.881836-.320312,1.640625-.959961,2.280273-.641113.641602-1.400391.959961-2.279785.959961h-60.47998c-.881348,0-1.640625-.318359-2.280273-.959961-.641113-.639648-.959961-1.398438-.959961-2.280273V31.719642c0-.879883.318848-1.638672.959961-2.280273.639648-.639648,1.398926-.959961,2.280273-.959961h24c.879395,0,1.638672.320312,2.279785.959961.639648.641602.959961,1.400391.959961,2.280273v56.159668Z"/>
  <path class="d" d="M352.54797,28.479408h23.520508c.879395,0,1.63916.316406,2.280762.949219.638672.631836.959961,1.381836.959961,2.25v47.627441c0,11.05957-3.480957,19.371094-10.440918,24.939453-6.959961,5.569336-16.420898,8.353516-28.379883,8.353516-11.960449,0-21.44043-2.763672-28.439941-8.292969-7.001465-5.527344-10.5-13.862305-10.5-25V31.678627c0-.868164.318848-1.618164.959961-2.25.63916-.632812,1.398926-.949219,2.279785-.949219h23.52002c.879395,0,1.638672.31543,2.280273.943359.63916.629883.959961,1.375977.959961,2.238281v47.740723c0,6.052734,2.958496,9.077148,8.880371,9.077148,5.918945,0,8.879883-3.024414,8.879883-9.077148V31.661049c0-.862305.318359-1.608398.959961-2.238281.638672-.62793,1.398438-.943359,2.279297-.943359Z"/>
  <path class="d" d="M475.427364,108.518959c.240234.401367.360352.900391.360352,1.5s-.260742,1.160156-.780273,1.679688c-.520508.521484-1.139648.780273-1.859375.780273h-27c-2.160156,0-3.800781-.918945-4.919922-2.759766l-10.44043-16.080078-9.959961,16.080078c-1.121094,1.84082-2.759766,2.759766-4.919922,2.759766h-26.160156c-.719727,0-1.34082-.258789-1.859375-.780273-.521484-.519531-.780273-1.080078-.780273-1.679688s.120117-1.098633.359375-1.5l25.200195-39-22.679688-37.07959c-.240234-.479492-.360352-.999023-.360352-1.55957,0-.55957.258789-1.099609.780273-1.620117.519531-.519531,1.139648-.780273,1.860352-.780273h26.040039c2.238281,0,3.917969,1.000977,5.040039,3l8.399414,14.639648,9.120117-14.639648c1.119141-1.999023,2.799805-3,5.040039-3h24.839844c.719727,0,1.338867.260742,1.860352.780273.519531.520508.780273,1.080078.780273,1.679688s-.120117,1.100586-.360352,1.5l-23.160156,36.719238,25.55957,39.360352Z"/>
  <path class="d" d="M559.938839,90.780555l-8.213379-8.213623c-6.610596-6.612061-6.611938-17.329895,0-23.943176l8.213379-8.213074.448486-.448486v-18.242554c0-.879883-.321289-1.638672-.959961-2.280273-.641602-.639648-1.401367-.959961-2.280273-.959961h-21.719727c-.881836,0-1.640625.320312-2.280273.959961-.641602.641602-.959961,1.400391-.959961,2.280273v32.759766l-20.280273-33.240234c-1.041016-1.838867-2.681641-2.759766-4.919922-2.759766h-18.959961c-.880859,0-1.640625.320312-2.280273.959961-.640625.641602-.959961,1.400391-.959961,2.280273v77.519043c0,.881836.319336,1.640625.959961,2.280273.639648.641602,1.399414.959961,2.280273.959961h21.719727c.879883,0,1.638672-.318359,2.280273-.959961.639648-.639648.959961-1.398438.959961-2.280273v-30.120117l20.280273,30.600586c1.200195,1.84082,2.838867,2.759766,4.919922,2.759766h18.959961c.878906,0,1.638672-.318359,2.280273-.959961.638672-.639648.959961-1.398438.959961-2.280273v-18.009644l-.448486-.448486Z"/>
  <path class="d" d="M722.856563,29.378639c-.521484-.519531-1.139648-.780273-1.859375-.780273h-22.320312c-2.879883,0-4.679688,1.320312-5.400391,3.959961l-11.399414,44.639648-11.400391-44.639648c-.719727-2.639648-2.519531-3.959961-5.400391-3.959961h-22.319336c-.719727,0-1.34082.260742-1.860352.780273-.521484.520508-.780273,1.019531-.780273,1.5,0,.479492.040039.880859.120117,1.200195l4.166016,14.137817,12.412964,12.412781c6.611938,6.611145,6.611938,17.331299,0,23.943298l-1.312622,1.312683,7.294189,24.752991c.719727,2.639648,2.519531,3.959961,5.399414,3.959961h27.360352c2.879883,0,4.679688-1.320312,5.400391-3.959961l22.55957-76.55957c.079102-.319336.120117-.720703.120117-1.200195,0-.480469-.260742-.979492-.780273-1.5Z"/>
  <path class="d" d="M749.516654,28.598389h26.040039c2.879883,0,4.679688,1.320312,5.399414,3.959961l26.759766,76.55957c.079102.240234.120117.621094.120117,1.140625,0,.521484-.260742,1.040039-.779297,1.55957-.521484.521484-1.140625.780273-1.860352.780273h-22.200195c-2.399414,0-3.959961-.999023-4.679688-3l-2.879883-7.919922h-25.799805l-2.880859,7.919922c-.719727,2.000977-2.279297,3-4.679688,3h-22.200195c-.719727,0-1.339844-.258789-1.859375-.780273-.521484-.519531-.780273-1.038086-.780273-1.55957,0-.519531.039062-.900391.120117-1.140625l26.759766-76.55957c.719727-2.639648,2.520508-3.959961,5.400391-3.959961ZM755.755911,78.278076h13.560547l-6.839844-22.319336-6.720703,22.319336Z"/>
  <path class="c" d="M649.679318,60.231684l-34.935437-34.935048c-5.691518-5.69288-14.920635-5.69288-20.613376.001001l-34.930431,34.92916c-5.692741,5.693878-5.691518,14.921629,0,20.614379l34.934176,34.935428c5.692741,5.692751,14.923119,5.692751,20.614637,0l34.930431-34.930412c5.692741-5.692751,5.692741-14.922503,0-20.614504v-.000005ZM622.120945,74.566132l-13.6521,13.65209c-2.224007,2.225259-5.83177,2.225259-8.057,0l-13.653323-13.654593c-2.224007-2.224007-2.224007-5.831751,0-8.056264l13.6521-13.651966c2.225268-2.225383,5.83177-2.225383,8.057,0l13.653361,13.653848c2.225268,2.223883,2.225268,5.831627,0,8.056885h-.000038Z"/>
  <g id="b">
    <path class="c" d="M100.54451,75.320675l-16.001754-15.818376c-2.607311-2.577732-6.834554-2.577732-9.442188.000301l-15.999926,15.815976c-2.607311,2.578034-2.606711,6.756532,0,9.333963l16.001754,15.818686c2.607301,2.577732,6.835154,2.577732,9.442474,0l15.99964-15.816286c2.60732-2.577732,2.60732-6.756842,0-9.334264h0ZM87.921467,81.811348l-6.253153,6.181192c-1.018831,1.007767-2.671435,1.007767-3.690284.000292l-6.254353-6.182378c-1.018831-1.007767-1.018831-2.640821,0-3.648003l6.253439-6.181776c1.019163-1.007457,2.671149-1.007457,3.690294,0l6.254058,6.182387c1.019145,1.007457,1.019145,2.640519,0,3.648286h0Z"/>
    <path class="d" d="M102.496298,38.325706V6.509217c.000591-3.594461-2.947641-6.509217-6.5838-6.509217h-32.182586c-3.636435.000292-6.584372,2.915066-6.584372,6.509217v31.816488c0,3.595365,2.947937,6.509829,6.584372,6.509226l32.181986.000602c3.636758,0,6.5844-2.914464,6.5844-6.509829h0Z"/>
    <path class="d" d="M45.351062,128.491075V6.509819c-.000609-3.595063-2.947946-6.509819-6.58499-6.509819H6.584695C2.947637.000292,0,2.914756,0,6.509217l.000305,121.981538c-.000305,3.594785,2.947332,6.508633,6.584686,6.509244l32.181081-.000611c3.63674,0,6.584381-2.913848,6.58499-6.508314h0Z"/>
  </g>
</svg>